HIERARCHY
ROOT Hips
{
	OFFSET 0.000000 0.000000 0.000000
	CHANNELS 6 Xposition Yposition Zposition Zrotation Yrotation Xrotation 
	JOINT LHipJoint
	{
		OFFSET 0.000000 0.000000 0.000000
		CHANNELS 3 Zrotation Yrotation Xrotation
		JOINT LeftUpLeg
		{
			OFFSET 1.363060 -1.794630 0.839290
			CHANNELS 3 Zrotation Yrotation Xrotation
			JOINT LeftLeg
			{
				OFFSET 2.448110 -6.726130 0.000000
				CHANNELS 3 Zrotation Yrotation Xrotation
				JOINT LeftFoot
				{
					OFFSET 2.562200 -7.039590 0.000000
					CHANNELS 3 Zrotation Yrotation Xrotation
					JOINT LeftToeBase
					{
						OFFSET 0.157640 -0.433110 2.322550
						CHANNELS 3 Zrotation Yrotation Xrotation
						End Site
						{
							OFFSET 0.000000 0.000000 0.000000
						}
					}
				}
			}
		}
	}
	JOINT RHipJoint
	{
		OFFSET 0.000000 0.000000 0.000000
		CHANNELS 3 Zrotation Yrotation Xrotation
		JOINT RightUpLeg
		{
			OFFSET -1.305520 -1.794630 0.839290
			CHANNELS 3 Zrotation Yrotation Xrotation
			JOINT RightLeg
			{
				OFFSET -2.542530 -6.985550 0.000000
				CHANNELS 3 Zrotation Yrotation Xrotation
				JOINT RightFoot
				{
					OFFSET -2.568260 -7.056230 0.000000
					CHANNELS 3 Zrotation Yrotation Xrotation
					JOINT RightToeBase
					{
						OFFSET -0.164730 -0.452590 2.363150
						CHANNELS 3 Zrotation Yrotation Xrotation
						End Site
						{
							OFFSET 0.000000 0.000000 0.000000
						}
					}
				}
			}
		}
	}
	JOINT LowerBack
	{
		OFFSET 0.000000 0.000000 0.000000
		CHANNELS 3 Zrotation Yrotation Xrotation
		JOINT Spine
		{
			OFFSET 0.028270 2.035590 -0.193380
			CHANNELS 3 Zrotation Yrotation Xrotation
			JOINT Spine1
			{
				OFFSET 0.056720 2.048850 -0.042750
				CHANNELS 3 Zrotation Yrotation Xrotation
				JOINT Neck
				{
					OFFSET 0.000000 0.000000 0.000000
					CHANNELS 3 Zrotation Yrotation Xrotation
					JOINT Neck1
					{
						OFFSET -0.054170 1.746240 0.172020
						CHANNELS 3 Zrotation Yrotation Xrotation
						JOINT Head
						{
							OFFSET 0.104070 1.761360 -0.123970
							CHANNELS 3 Zrotation Yrotation Xrotation
							End Site
							{
								OFFSET 0.000000 0.000000 0.000000
							}
						}
					}
				}
				JOINT LeftShoulder
				{
					OFFSET 0.000000 0.000000 0.000000
					CHANNELS 3 Zrotation Yrotation Xrotation
					JOINT LeftArm
					{
						OFFSET 3.362410 1.200890 -0.311210
						CHANNELS 3 Zrotation Yrotation Xrotation
						JOINT LeftForeArm
						{
							OFFSET 4.983000 -0.000000 -0.000000
							CHANNELS 3 Zrotation Yrotation Xrotation
							JOINT LeftHand
							{
								OFFSET 3.483560 -0.000000 -0.000000
								CHANNELS 3 Zrotation Yrotation Xrotation
								JOINT LeftFingerBase
								{
									OFFSET 0.000000 0.000000 0.000000
									CHANNELS 3 Zrotation Yrotation Xrotation
									JOINT LeftHandIndex1
									{
										OFFSET 0.715260 -0.000000 -0.000000
										CHANNELS 3 Zrotation Yrotation Xrotation
										End Site
										{
											OFFSET 0.000000 0.000000 0.000000
										}
									}
								}
								JOINT LThumb
								{
									OFFSET 0.000000 0.000000 0.000000
									CHANNELS 3 Zrotation Yrotation Xrotation
									End Site
									{
										OFFSET 0.000000 0.000000 0.000000
									}
								}
							}
						}
					}
				}
				JOINT RightShoulder
				{
					OFFSET 0.000000 0.000000 0.000000
					CHANNELS 3 Zrotation Yrotation Xrotation
					JOINT RightArm
					{
						OFFSET -3.136600 1.374050 -0.404650
						CHANNELS 3 Zrotation Yrotation Xrotation
						JOINT RightForeArm
						{
							OFFSET -5.241900 -0.000000 -0.000000
							CHANNELS 3 Zrotation Yrotation Xrotation
							JOINT RightHand
							{
								OFFSET -3.444170 -0.000000 -0.000000
								CHANNELS 3 Zrotation Yrotation Xrotation
								JOINT RightFingerBase
								{
									OFFSET 0.000000 0.000000 0.000000
									CHANNELS 3 Zrotation Yrotation Xrotation
									JOINT RightHandIndex1
									{
										OFFSET -0.622530 -0.000000 -0.000000
										CHANNELS 3 Zrotation Yrotation Xrotation
										End Site
										{
											OFFSET 0.000000 0.000000 0.000000
										}
									}
								}
								JOINT RThumb
								{
									OFFSET 0.000000 0.000000 0.000000
									CHANNELS 3 Zrotation Yrotation Xrotation
									End Site
									{
										OFFSET 0.000000 0.000000 0.000000
									}
								}
							}
						}
					}
				}
			}
		}
	}
}
MOTION
Frames: 5
Frame Time: 0.008333
4.248621 16.940220 2.589296 -174.303137 -87.254029 171.760071 -10.448760 2.784547 0.243445 -10.586974 8.505356 2.155620 -1.991134 0.194935 16.243922 2.031067 9.701115 -17.012191 -1.964100 0.000000 -23.422200 9.115441 -0.073972 -0.117102 11.442781 -12.619535 -29.818660 2.585765 -0.419767 15.757236 -1.531950 -7.232611 -3.544776 -1.092900 0.000000 -43.210400 -1.119251 -3.011104 -1.510749 -0.879579 -3.021203 -2.499837 -6.208269 -2.969107 2.315482 9.554682 -16.426596 -7.978195 -2.793368 -0.208682 -0.080481 0.000000 0.000000 0.000000 2.329055 8.566009 1.494934 -38.776901 -20.627684 6.128490 -2.798311 -31.580898 -0.012666 4.872653 1.370059 0.056032 -0.178682 0.123089 0.000000 0.000000 0.000000 0.000000 0.000000 0.000000 0.000000 15.466104 -14.499309 -0.414804 65.688887 -8.182814 -4.020253 3.609843 24.546331 0.010226 1.696901 4.922446 0.069767 0.095957 -0.036039 -0.000000 0.000000 0.000000 0.000000 0.000000 0.000000 0.000000 
4.084092 16.922346 2.584832 -177.713397 -87.445542 175.158166 -10.434093 2.812842 0.206820 -10.691797 8.520975 3.332284 -1.991476 0.136077 15.362030 2.053344 9.772770 -17.043432 -1.983499 -0.000000 -23.760401 9.049038 -0.039128 -0.016010 11.785455 -12.874514 -30.173346 2.761118 -0.167705 13.222814 -1.373182 -6.562781 -2.847026 -1.134000 0.000000 -45.220900 -1.047990 -3.155725 -1.556438 -0.852734 -3.171787 -2.494049 -6.163738 -3.119139 2.348203 9.548805 -16.668645 -8.022737 -2.776125 -0.206885 -0.089812 0.000000 0.000000 0.000000 2.598950 8.434601 1.489340 -37.860137 -20.932376 5.800505 -2.674625 -32.580632 -0.013122 4.843832 1.316936 0.052939 -0.176301 0.131977 0.000000 0.000000 0.000000 0.000000 0.000000 0.000000 0.000000 15.485545 -14.853972 -0.406828 65.997148 -8.992784 -5.669519 3.684307 23.478569 0.010634 1.365030 5.022805 0.056362 0.101113 -0.036297 -0.000000 0.000000 0.000000 0.000000 0.000000 0.000000 0.000000 
3.918923 16.902634 2.580465 178.710255 -87.604784 178.726075 -10.415729 2.836621 0.159480 -10.781687 8.561650 4.506859 -1.989731 0.078074 14.489950 2.074921 9.842920 -17.059565 -1.999200 -0.000000 -24.161300 8.989527 -0.002652 0.100133 12.103924 -13.025884 -30.479549 2.921922 0.085817 10.784691 -1.220195 -5.913322 -2.226743 -1.150001 0.000000 -46.960700 -0.956382 -3.296982 -1.603401 -0.821573 -3.320280 -2.490126 -6.113013 -3.267471 2.378530 9.532130 -16.891435 -8.069312 -2.755786 -0.204819 -0.099661 0.000000 0.000000 0.000000 2.864590 8.328732 1.479164 -37.005812 -21.184155 5.389640 -2.553229 -33.554839 -0.013585 4.795424 1.278733 0.050442 -0.173409 0.141084 0.000000 0.000000 0.000000 0.000000 0.000000 0.000000 0.000000 15.477310 -15.184504 -0.394219 66.301388 -9.786288 -7.352920 3.758921 22.414040 0.010966 1.074210 5.075063 0.043655 0.106013 -0.036558 -0.000000 0.000000 0.000000 0.000000 0.000000 0.000000 0.000000 
3.753093 16.881071 2.576091 175.137150 -87.734583 -177.699370 -10.391546 2.859407 0.103445 -10.854836 8.627027 5.660913 -1.987619 0.022688 13.642964 2.093814 9.898984 -17.063381 -2.009800 -0.000000 -24.632501 8.938345 0.039783 0.233007 12.388802 -13.063268 -30.739805 3.061448 0.340775 8.453049 -1.085943 -5.346444 -1.702197 -1.152100 0.000000 -48.381200 -0.842582 -3.436496 -1.655900 -0.784996 -3.468453 -2.487370 -6.055422 -3.415803 2.412834 9.508295 -17.124008 -8.126723 -2.730448 -0.202214 -0.112332 0.000000 0.000000 0.000000 3.113135 8.265858 1.464113 -36.197254 -21.406293 4.926887 -2.433968 -34.507080 -0.014041 4.726807 1.258311 0.048440 -0.170028 0.150271 0.000000 0.000000 0.000000 0.000000 0.000000 0.000000 0.000000 15.446356 -15.521941 -0.378336 66.586953 -10.527298 -8.988489 3.831531 21.348157 0.011200 0.804752 5.075617 0.031445 0.110765 -0.036723 -0.000000 0.000000 0.000000 0.000000 0.000000 0.000000 0.000000 
3.586695 16.857679 2.571871 171.863528 -87.830804 -174.423287 -10.362770 2.886352 0.037424 -10.898366 8.733037 6.800756 -1.985769 -0.027774 12.822368 2.106664 9.925634 -17.046013 -2.010800 -0.000001 -25.203100 8.896247 0.090416 0.377605 12.640661 -13.001065 -30.931911 3.176173 0.598226 6.212384 -0.977234 -4.903780 -1.266061 -1.152700 -0.000000 -49.534700 -0.700045 -3.571255 -1.708459 -0.742804 -3.613828 -2.489364 -5.997316 -3.561953 2.433497 9.474654 -17.284495 -8.172279 -2.707828 -0.199977 -0.121820 0.000000 0.000000 0.000000 3.366272 8.195768 1.448407 -35.457358 -21.522685 4.391663 -2.319294 -35.466546 -0.014418 4.627163 1.250479 0.046736 -0.166074 0.159447 0.000000 0.000000 0.000000 0.000000 0.000000 0.000000 0.000000 15.397721 -15.778080 -0.357347 66.881871 -11.323466 -10.748315 3.903972 20.342154 0.011304 0.608961 5.014902 0.022233 0.114972 -0.036955 -0.000000 0.000000 0.000000 0.000000 0.000000 0.000000 0.000000 
